<?xml version="1.0" encoding="UTF-8"?>
<svg width="790px" height="1060px" viewBox="0 0 790 1060" version="1.1" xmlns="http://www.w3.org/2000/svg" xmlns:xlink="http://www.w3.org/1999/xlink">
    <!-- Generator: Sketch 43.2 (39069) - http://www.bohemiancoding.com/sketch -->
    <title>Artboard</title>
    <desc>Created with Sketch.</desc>
    <defs></defs>
    <g id="Page-1" stroke="none" stroke-width="1" fill="none" fill-rule="evenodd">
        <g id="Artboard" stroke="#000000" stroke-width="4" fill="#000000">
            <path d="M395.307856,1009.41745 C243.043572,1009.41745 119.0183,887.85894 114,736 L114.533214,314 C124.731955,167.037266 246.541714,51 395.307856,51 C544.073998,51 665.883757,167.037266 676.082498,314 L676.615712,736 C671.597412,887.85894 547.57214,1009.41745 395.307856,1009.41745 Z M535.199273,314 C524.86922,246.543727 466.883304,194.891046 396.898058,194.891046 C319.612567,194.891046 256.960297,257.881657 256.960297,335.584513 C256.960297,335.723056 256.960497,335.861551 256.960895,336 L256.842133,336 L256.842133,738.143812 L257.316272,738.143812 C262.472214,811.12623 322.994927,868.723985 396.898058,868.723985 C470.801189,868.723985 531.323902,811.12623 536.479844,738.143812 L535.199273,314 Z" id="Combined-Shape"></path>
        </g>
    </g>
</svg>