<?xml version="1.0" encoding="UTF-8"?>
<svg width="790px" height="1060px" viewBox="0 0 790 1060" version="1.1" xmlns="http://www.w3.org/2000/svg" xmlns:xlink="http://www.w3.org/1999/xlink">
    <!-- Generator: Sketch 43.2 (39069) - http://www.bohemiancoding.com/sketch -->
    <title>Artboard</title>
    <desc>Created with Sketch.</desc>
    <defs>
        <path d="M295.390442,341.388963 L295.823376,341.821897 L341,296.645274 L341,938 C341,977.764502 373.235498,1010 413,1010 C452.764502,1010 485,977.764502 485,938 L485,123 C485,83.235498 452.764502,51 413,51 C393.626049,51 376.039337,58.6520835 363.097318,71.0987976 L362.998521,71 L198.974124,235.024397 C181.956651,248.193315 171,268.817126 171,292 C171,331.764502 203.235498,364 243,364 C263.64569,364 282.261805,355.310353 295.390442,341.388963 L295.390442,341.388963 Z" id="path-1"></path>
    </defs>
    <g id="Page-1" stroke="none" stroke-width="1" fill="none" fill-rule="evenodd">
        <g id="Artboard">
            <g id="Combined-Shape">
                <use fill="#000000" fill-rule="evenodd" xlink:href="#path-1"></use>
                <path stroke="#000000" stroke-width="4" d="M295.823376,338.99347 L295.348388,338.518482 L293.935407,340.016785 C280.790715,353.9552 262.540841,362 243,362 C204.340068,362 173,330.659932 173,292 C173,270.050576 183.16654,249.785951 200.198127,236.60611 L200.298549,236.528398 L200.388337,236.438611 L362.998521,73.8284271 L363.069998,73.8999042 L364.483678,72.5403265 C377.438762,60.0810479 394.659679,53 413,53 C451.659932,53 483,84.3400675 483,123 L483,938 C483,976.659932 451.659932,1008 413,1008 C374.340068,1008 343,976.659932 343,938 L343,296.645274 L343,291.816847 L339.585786,295.23106 L295.823376,338.99347 Z"></path>
            </g>
        </g>
    </g>
</svg>