<?xml version="1.0" encoding="UTF-8"?>
<svg width="790px" height="1060px" viewBox="0 0 790 1060" version="1.1" xmlns="http://www.w3.org/2000/svg" xmlns:xlink="http://www.w3.org/1999/xlink">
    <!-- Generator: Sketch 43.2 (39069) - http://www.bohemiancoding.com/sketch -->
    <title>Artboard</title>
    <desc>Created with Sketch.</desc>
    <defs></defs>
    <g id="Page-1" stroke="none" stroke-width="1" fill="none" fill-rule="evenodd">
        <g id="Artboard" stroke="#000000" stroke-width="4" fill="#000000">
            <path d="M132.676916,883.907344 C126.522999,894.58159 123,906.980118 123,920.20598 C123,959.631105 154.304781,991.704686 193.28504,992.668406 L193.285045,992.690709 L590.587217,992.690709 L590.587217,992.532187 C592.175738,992.637315 593.778313,992.690709 595.393291,992.690709 C635.208117,992.690709 667.484411,960.23819 667.484411,920.20598 C667.484411,880.173769 635.208117,847.721251 595.393291,847.721251 C593.778313,847.721251 592.175738,847.774645 590.587217,847.879772 L590.587217,847.721251 L334.887987,847.721251 L607.634513,458.198844 L607.102255,457.826153 C633.172855,416.092049 648.260112,368.442115 648.260112,320.998884 C648.260112,187.319968 528.4792,52 380.721957,52 C279.799345,52 191.928525,108.186473 146.363377,191.145817 C137.590369,203.152476 132.4081,217.976346 132.4081,234.017209 C132.4081,274.04942 164.684393,306.501938 204.499219,306.501938 C231.375803,306.501938 254.81724,291.714025 267.214171,269.789105 L267.660442,270.04631 C286.532975,227.010409 329.337284,196.969459 379.119932,196.969459 C446.362749,196.969459 500.873823,251.778157 500.873823,319.388113 C500.873823,343.441796 493.97418,365.875182 482.056265,384.79663 L475.192916,394.598509 C473.646171,396.593086 472.039328,398.538245 470.375126,400.431232 L470.874092,400.766429 L139.330391,874.259904 C137.081164,877.016242 135.030131,879.942336 133.199186,883.016172 L132.608651,883.859544 L132.676916,883.907344 L132.676916,883.907344 Z" id="Combined-Shape"></path>
        </g>
    </g>
</svg>