<?xml version="1.0" encoding="UTF-8"?>
<svg width="790px" height="1060px" viewBox="0 0 790 1060" version="1.1" xmlns="http://www.w3.org/2000/svg" xmlns:xlink="http://www.w3.org/1999/xlink">
    <!-- Generator: Sketch 43.2 (39069) - http://www.bohemiancoding.com/sketch -->
    <title>Artboard</title>
    <desc>Created with Sketch.</desc>
    <defs></defs>
    <g id="Page-1" stroke="none" stroke-width="1" fill="none" fill-rule="evenodd">
        <g id="Artboard" stroke="#000000" stroke-width="4" fill="#000000">
            <path d="M521.928571,328.056022 C521.928571,251.711732 460.371722,189.822457 384.4375,189.822457 C335.000249,189.822457 291.657147,216.055515 267.427967,255.431549 C257.112046,282.12416 231.311774,301.044866 201.116071,301.044866 C161.83975,301.044866 130,269.033172 130,229.544746 C130,215.102994 134.258628,201.66127 141.582181,190.419723 C189.589267,106.504403 279.659993,50 382.857143,50 C536.471201,50 661,175.201293 661,329.644914 C661,408.126648 628.843629,479.0573 577.054869,529.845256 C628.843632,580.633206 661,651.563855 661,730.045586 C661,884.489207 536.471201,1009.6905 382.857143,1009.6905 C279.659993,1009.6905 189.589267,953.186097 141.582181,869.270776 C134.258628,858.02923 130,844.587506 130,830.145754 C130,790.657328 161.83975,758.645634 201.116071,758.645634 C228.310927,758.645634 251.940577,773.992531 263.904475,796.542033 C288.112175,838.261308 332.972701,866.69026 384.4375,866.69026 C460.371722,866.69026 521.928571,804.800985 521.928571,728.456694 C521.928571,653.777436 463.027491,592.929554 389.384758,590.310951 C355.981368,589.474857 329.125,562.018865 329.125,528.256358 C329.125,494.033056 356.723723,467.264399 390.758929,466.289588 C466.031921,464.133675 521.928571,385.599892 521.928571,328.056022 Z" id="Combined-Shape"></path>
        </g>
    </g>
</svg>