<?xml version="1.0" encoding="UTF-8"?>
<svg width="790px" height="1060px" viewBox="0 0 790 1060" version="1.1" xmlns="http://www.w3.org/2000/svg" xmlns:xlink="http://www.w3.org/1999/xlink">
    <!-- Generator: Sketch 43.2 (39069) - http://www.bohemiancoding.com/sketch -->
    <title>Artboard</title>
    <desc>Created with Sketch.</desc>
    <defs>
        <path d="M350.502608,103.113316 L105.175088,777.145137 C101.83707,785.443605 100,794.507267 100,804 C100,843.597702 131.965629,875.729432 171.5,875.9983 L171.5,876.5 L404,876.5 L404,937 C404,976.764502 436.235498,1009 476,1009 C515.764502,1009 548,976.764502 548,937 L548,876.5 L609.470021,876.5 C612.267387,876.830184 615.113862,877 618,877 C657.764502,877 690,844.764502 690,805 C690,765.402298 658.034371,733.270568 618.5,733.0017 L618.5,732.5 L548,732.5 L548,653 C548,613.235498 515.764502,581 476,581 C436.235498,581 404,613.235498 404,653 L404,732.5 L274.666188,732.5 L487.410022,147.991122 L487.195966,147.913212 C490.298812,139.872494 492,131.134914 492,122 C492,82.235498 459.764502,50 420,50 C386.771002,50 358.799524,72.5101183 350.502609,103.113311 L350.502608,103.113316 Z" id="path-1"></path>
    </defs>
    <g id="Page-1" stroke="none" stroke-width="1" fill="none" fill-rule="evenodd">
        <g id="Artboard">
            <g id="Combined-Shape">
                <use fill="#000000" fill-rule="evenodd" xlink:href="#path-1"></use>
                <path stroke="#000000" stroke-width="4" d="M484.846596,149.186467 L272.786803,731.81596 L271.809892,734.5 L274.666188,734.5 L404,734.5 L406,734.5 L406,732.5 L406,653 C406,614.340068 437.340068,583 476,583 C514.659932,583 546,614.340068 546,653 L546,732.5 L546,734.5 L548,734.5 L616.5,734.5 L616.5,734.988144 L618.486399,735.001654 C656.941302,735.263181 688,766.521321 688,805 C688,843.659932 656.659932,875 618,875 C615.211129,875 612.442847,874.837011 609.704461,874.513788 L609.587647,874.5 L609.470021,874.5 L548,874.5 L546,874.5 L546,876.5 L546,937 C546,975.659932 514.659932,1007 476,1007 C437.340068,1007 406,975.659932 406,937 L406,876.5 L406,874.5 L404,874.5 L173.5,874.5 L173.5,874.011856 L171.513601,873.998346 C133.058698,873.736819 102,842.478679 102,804 C102,794.937288 103.721926,786.117029 107.030602,777.891508 L352.381993,103.797356 L352.432925,103.636649 C360.633676,73.3881553 388.200256,52 420,52 C458.659932,52 490,83.3400675 490,122 C490,130.725722 488.40385,139.227796 485.330073,147.19318 L484.596068,149.095282 L484.846596,149.186467 Z"></path>
            </g>
        </g>
    </g>
</svg>