<?xml version="1.0" encoding="UTF-8"?>
<svg width="790px" height="1060px" viewBox="0 0 790 1060" version="1.1" xmlns="http://www.w3.org/2000/svg" xmlns:xlink="http://www.w3.org/1999/xlink">
    <!-- Generator: Sketch 43.2 (39069) - http://www.bohemiancoding.com/sketch -->
    <title>Artboard</title>
    <desc>Created with Sketch.</desc>
    <defs></defs>
    <g id="Page-1" stroke="none" stroke-width="1" fill="none" fill-rule="evenodd">
        <g id="Artboard" stroke="#000000" stroke-width="4" fill="#000000">
            <path d="M318.36543,387.391524 L318.36543,386.706197 C316.284572,386.984941 314.16131,387.128826 312.004622,387.128826 C285.657296,387.128826 264.298568,365.654754 264.298568,339.165144 C264.298568,338.090666 264.333709,337.02444 264.402899,335.967565 L264.298568,335.967565 L264.298568,206.088625 L598.240951,206.088625 C638.640184,206.088625 671.390234,173.161715 671.390234,132.544312 C671.390234,91.9269102 638.640184,59 598.240951,59 L194.329688,59 L194.329688,59.0682631 C193.275182,59.0229087 192.214894,59 191.149284,59 C150.75005,59 118,91.9269102 118,132.544312 L118,540.612608 C118,581.23001 150.75005,614.156921 191.149284,614.156921 C213.340746,614.156921 233.224183,604.221722 246.63927,588.534114 C275.781495,555.231967 318.48557,534.217451 366.071484,534.217451 C453.895906,534.217451 525.091667,605.79769 525.091667,694.096391 C525.091667,782.395091 453.895906,853.975331 366.071484,853.975331 C320.744072,853.975331 279.846096,834.908241 250.879397,804.316413 L250.471568,804.651082 C236.763816,787.909031 215.991663,777.233439 192.739486,777.233439 C151.462008,777.233439 118,810.876152 118,852.376541 C118,879.080776 131.855045,902.531517 152.732115,915.858843 C207.806517,968.651246 282.379034,1001.06396 364.481283,1001.06396 C533.982416,1001.06396 671.390234,862.914093 671.390234,692.497601 C671.390234,522.081109 533.982416,383.931247 364.481283,383.931247 C348.807139,383.931247 333.40743,385.112581 318.36543,387.391524 L318.36543,387.391524 Z" id="Combined-Shape"></path>
        </g>
    </g>
</svg>