<?xml version="1.0" encoding="UTF-8"?>
<svg width="790px" height="1060px" viewBox="0 0 790 1060" version="1.1" xmlns="http://www.w3.org/2000/svg" xmlns:xlink="http://www.w3.org/1999/xlink">
    <!-- Generator: Sketch 43.2 (39069) - http://www.bohemiancoding.com/sketch -->
    <title>Artboard</title>
    <desc>Created with Sketch.</desc>
    <defs></defs>
    <g id="Page-1" stroke="none" stroke-width="1" fill="none" fill-rule="evenodd">
        <g id="Artboard" stroke="#000000" stroke-width="4" fill="#000000">
            <path d="M528.112177,310.392193 L527.705468,310.43175 C518.810156,244.72995 462.573404,194.088625 394.525533,194.088625 C324.812404,194.088625 267.495547,247.238853 260.778118,315.281825 L261.118164,315.281863 L261.118164,490.795438 C300.720134,468.805439 346.253918,456.290087 394.695117,456.290087 C547.509611,456.290087 671.390234,580.839704 671.390234,734.479442 C671.390234,888.119181 547.509611,1012.6688 394.695117,1012.6688 C241.880624,1012.6688 118,888.119181 118,734.479442 C118,733.412168 118.005978,732.346298 118.017902,731.281863 L118,731.281863 L118,315.281863 L118.630508,315.281863 C128.333282,165.434882 248.801583,47 395.986532,47 C536.946354,47 653.401675,155.628431 671.523326,296.443868 L670.365971,296.556434 C669.365055,335.448462 637.523595,366.668798 598.390234,366.668798 C564.026375,366.668798 535.285286,342.59486 528.112177,310.392193 Z M396.285319,596.983554 C321.634561,596.983554 261.118164,657.826757 261.118164,732.880653 C261.118164,807.934548 321.634561,868.777752 396.285319,868.777752 C470.936077,868.777752 531.452474,807.934548 531.452474,732.880653 C531.452474,657.826757 470.936077,596.983554 396.285319,596.983554 Z" id="Combined-Shape"></path>
        </g>
    </g>
</svg>