<?xml version="1.0" encoding="UTF-8"?>
<svg width="790px" height="1060px" viewBox="0 0 790 1060" version="1.1" xmlns="http://www.w3.org/2000/svg" xmlns:xlink="http://www.w3.org/1999/xlink">
    <!-- Generator: Sketch 43.2 (39069) - http://www.bohemiancoding.com/sketch -->
    <title>Artboard</title>
    <desc>Created with Sketch.</desc>
    <defs></defs>
    <g id="Page-1" stroke="none" stroke-width="1" fill="none" fill-rule="evenodd">
        <g id="Artboard" stroke="#000000" stroke-width="4" fill="#000000">
            <path d="M678.485131,163.061724 L678.73262,163.17713 L306.483451,961.46805 L306.319696,961.39169 C294.464175,984.886765 270.113812,1001 242,1001 C202.235498,1001 170,968.764502 170,929 C170,916.326143 173.27462,904.417115 179.023932,894.072843 L501.276491,203 L170,203 L170,202.753557 C133.042817,199.704652 104,168.743983 104,131 C104,93.2560174 133.042817,62.2953481 170,59.2464427 L170,59 L614,59 C653.764502,59 686,91.235498 686,131 C686,142.519273 683.294837,153.406721 678.485131,163.061724 L678.485131,163.061724 Z" id="Combined-Shape"></path>
        </g>
    </g>
</svg>