<?xml version="1.0" encoding="UTF-8"?>
<svg width="790px" height="1060px" viewBox="0 0 790 1060" version="1.1" xmlns="http://www.w3.org/2000/svg" xmlns:xlink="http://www.w3.org/1999/xlink">
    <!-- Generator: Sketch 43.2 (39069) - http://www.bohemiancoding.com/sketch -->
    <title>Artboard</title>
    <desc>Created with Sketch.</desc>
    <defs></defs>
    <g id="Page-1" stroke="none" stroke-width="1" fill="none" fill-rule="evenodd">
        <g id="Artboard" stroke="#000000" stroke-width="4" fill="#000000">
            <path d="M221.510048,503.803342 C169.151652,456.120681 136.262826,387.223217 136.262826,310.602672 C136.262826,166.675791 252.311915,50 395.465723,50 C538.61953,50 654.66862,166.675791 654.66862,310.602672 C654.66862,387.223217 621.779794,456.120681 569.421397,503.803342 C634.891228,555.618751 676.931445,636.017311 676.931445,726.287916 C676.931445,882.576616 550.914949,1009.27364 395.465723,1009.27364 C240.016496,1009.27364 114,882.576616 114,726.287916 C114,636.017311 156.040217,555.618751 221.510048,503.803342 L221.510048,503.803342 Z M395.465723,427.314299 C459.57755,427.314299 511.550456,375.060724 511.550456,310.602672 C511.550456,246.144621 459.57755,193.891046 395.465723,193.891046 C331.353895,193.891046 279.38099,246.144621 279.38099,310.602672 C279.38099,375.060724 331.353895,427.314299 395.465723,427.314299 Z M397.055924,868.580173 C474.341415,868.580173 536.993685,805.589562 536.993685,727.886706 C536.993685,650.183849 474.341415,587.193239 397.055924,587.193239 C319.770433,587.193239 257.118164,650.183849 257.118164,727.886706 C257.118164,805.589562 319.770433,868.580173 397.055924,868.580173 Z" id="8"></path>
        </g>
    </g>
</svg>