<?xml version="1.0" encoding="UTF-8"?>
<svg width="790px" height="1060px" viewBox="0 0 790 1060" version="1.1" xmlns="http://www.w3.org/2000/svg" xmlns:xlink="http://www.w3.org/1999/xlink">
    <!-- Generator: Sketch 43.2 (39069) - http://www.bohemiancoding.com/sketch -->
    <title>Artboard</title>
    <desc>Created with Sketch.</desc>
    <defs>
        <path d="M281,122 L281,936.999963 C281,976.764502 248.764502,1009 209,1009 C169.235498,1009 137,976.764502 137,937 L137,122 C137,82.235498 169.235498,50 209,50 C248.764502,50 281,82.235498 281,122 Z" id="path-1"></path>
        <path d="M466,122 L466,936.999963 C466,976.764502 433.764502,1009 394,1009 C354.235498,1009 322,976.764502 322,937 L322,122 C322,82.235498 354.235498,50 394,50 C433.764502,50 466,82.235498 466,122 Z" id="path-2"></path>
        <path d="M653,122 L653,936.999963 C653,976.764502 620.764502,1009 581,1009 C541.235498,1009 509,976.764502 509,937 L509,122 C509,82.235498 541.235498,50 581,50 C620.764502,50 653,82.235498 653,122 Z" id="path-3"></path>
    </defs>
    <g id="Page-1" stroke="none" stroke-width="1" fill="none" fill-rule="evenodd">
        <g id="Artboard">
            <g id="Combined-Shape">
                <use fill="#000000" fill-rule="evenodd" xlink:href="#path-1"></use>
                <path stroke="#000000" stroke-width="4" d="M279,122 L279,936.999963 C279,975.659927 247.659938,1007 209,1007 C170.340068,1007 139,975.659932 139,937 L139,122 C139,83.3400675 170.340068,52 209,52 C247.659932,52 279,83.3400675 279,122 Z"></path>
            </g>
            <g id="Combined-Shape">
                <use fill="#000000" fill-rule="evenodd" xlink:href="#path-2"></use>
                <path stroke="#000000" stroke-width="4" d="M464,122 L464,936.999963 C464,975.659927 432.659938,1007 394,1007 C355.340068,1007 324,975.659932 324,937 L324,122 C324,83.3400675 355.340068,52 394,52 C432.659932,52 464,83.3400675 464,122 Z"></path>
            </g>
            <g id="Combined-Shape">
                <use fill="#000000" fill-rule="evenodd" xlink:href="#path-3"></use>
                <path stroke="#000000" stroke-width="4" d="M651,122 L651,936.999963 C651,975.659927 619.659938,1007 581,1007 C542.340068,1007 511,975.659932 511,937 L511,122 C511,83.3400675 542.340068,52 581,52 C619.659932,52 651,83.3400675 651,122 Z"></path>
            </g>
        </g>
    </g>
</svg>