<?xml version="1.0" encoding="UTF-8"?>
<svg width="790px" height="1060px" viewBox="0 0 790 1060" version="1.1" xmlns="http://www.w3.org/2000/svg" xmlns:xlink="http://www.w3.org/1999/xlink">
    <!-- Generator: Sketch 43.2 (39069) - http://www.bohemiancoding.com/sketch -->
    <title>Artboard</title>
    <desc>Created with Sketch.</desc>
    <defs>
        <path d="M237,122 L237,936.999963 C237,976.764502 204.764502,1009 165,1009 C125.235498,1009 93,976.764502 93,937 L93,122 C93,82.235498 125.235498,50 165,50 C204.764502,50 237,82.235498 237,122 Z" id="path-1"></path>
        <path d="M408.777577,116.298687 L480.823673,524.892402 L553.222423,114.298687 C556.128678,77.1994197 587.154394,48 625,48 C664.764502,48 697,80.235498 697,120 C697,126.366158 696.173775,132.53934 694.622708,138.418167 L695.173806,138.51534 L552.450443,947.939751 C552.145765,950.399956 551.716975,952.821686 551.170533,955.198482 L550.896994,956.7498 L550.799937,956.732686 C542.900522,987.92232 514.645302,1011 481,1011 C448.04513,1011 420.261392,988.859751 411.711958,958.642425 L411.103006,958.7498 L266.826194,140.51534 L267.377292,140.418167 C265.826225,134.53934 265,128.366158 265,122 C265,82.235498 297.235498,50 337,50 C374.845606,50 405.871322,79.1994197 408.777577,116.298687 L408.777577,116.298687 Z" id="path-2"></path>
    </defs>
    <g id="Page-1" stroke="none" stroke-width="1" fill="none" fill-rule="evenodd">
        <g id="Artboard">
            <g id="Combined-Shape">
                <use fill="#000000" fill-rule="evenodd" xlink:href="#path-1"></use>
                <path stroke="#000000" stroke-width="4" d="M235,122 L235,936.999963 C235,975.659927 203.659938,1007 165,1007 C126.340068,1007 95,975.659932 95,937 L95,122 C95,83.3400675 126.340068,52 165,52 C203.659932,52 235,83.3400675 235,122 Z"></path>
            </g>
            <g id="Combined-Shape">
                <use fill="#000000" fill-rule="evenodd" xlink:href="#path-2"></use>
                <path stroke="#000000" stroke-width="4" d="M692.856894,140.137659 L550.480828,947.592455 L550.465606,947.693943 C550.170922,950.073443 549.755351,952.42782 549.221383,954.75036 L549.200918,954.851186 L549.172504,955.012328 L548.861153,956.241649 C541.060141,987.042757 513.22355,1009 481,1009 C449.478475,1009 422.091516,987.981854 413.636414,958.097936 L413.144412,956.358992 L412.725325,956.432888 L269.143106,142.137659 L269.865783,142.010232 L269.311117,139.907947 C267.782115,134.112756 267,128.10896 267,122 C267,83.3400675 298.340068,52 337,52 C373.595969,52 403.942827,80.1904144 406.783686,116.454883 L406.807961,116.645983 L478.854058,525.239698 L480.823673,536.409943 L482.793289,525.239698 L555.192039,114.645983 L555.216314,114.454883 C558.057173,78.1904144 588.404031,50 625,50 C663.659932,50 695,81.3400675 695,120 C695,126.10896 694.217885,132.112756 692.688883,137.907947 L692.134217,140.010232 L692.856894,140.137659 Z"></path>
            </g>
        </g>
    </g>
</svg>