<?xml version="1.0" encoding="UTF-8"?>
<svg width="790px" height="1060px" viewBox="0 0 790 1060" version="1.1" xmlns="http://www.w3.org/2000/svg" xmlns:xlink="http://www.w3.org/1999/xlink">
    <!-- Generator: Sketch 43.2 (39069) - http://www.bohemiancoding.com/sketch -->
    <title>Artboard</title>
    <desc>Created with Sketch.</desc>
    <defs>
        <path d="M322.777577,116.298687 L394.823673,524.892402 L467.222423,114.298687 C470.128678,77.1994197 501.154394,48 539,48 C578.764502,48 611,80.235498 611,120 C611,126.366158 610.173775,132.53934 608.622708,138.418167 L609.173806,138.51534 L466.450443,947.939751 C466.145765,950.399956 465.716975,952.821686 465.170533,955.198482 L464.896994,956.7498 L464.799937,956.732686 C456.900522,987.92232 428.645302,1011 395,1011 C362.04513,1011 334.261392,988.859751 325.711958,958.642425 L325.103006,958.7498 L180.826194,140.51534 L181.377292,140.418167 C179.826225,134.53934 179,128.366158 179,122 C179,82.235498 211.235498,50 251,50 C288.845606,50 319.871322,79.1994197 322.777577,116.298687 L322.777577,116.298687 Z" id="path-1"></path>
    </defs>
    <g id="Page-1" stroke="none" stroke-width="1" fill="none" fill-rule="evenodd">
        <g id="Artboard">
            <g id="Combined-Shape">
                <use fill="#000000" fill-rule="evenodd" xlink:href="#path-1"></use>
                <path stroke="#000000" stroke-width="4" d="M606.856894,140.137659 L464.480828,947.592455 L464.465606,947.693943 C464.170922,950.073443 463.755351,952.42782 463.221383,954.75036 L463.200918,954.851186 L463.172504,955.012328 L462.861153,956.241649 C455.060141,987.042757 427.22355,1009 395,1009 C363.478475,1009 336.091516,987.981854 327.636414,958.097936 L327.144412,956.358992 L326.725325,956.432888 L183.143106,142.137659 L183.865783,142.010232 L183.311117,139.907947 C181.782115,134.112756 181,128.10896 181,122 C181,83.3400675 212.340068,52 251,52 C287.595969,52 317.942827,80.1904144 320.783686,116.454883 L320.807961,116.645983 L392.854058,525.239698 L394.823673,536.409943 L396.793289,525.239698 L469.192039,114.645983 L469.216314,114.454883 C472.057173,78.1904144 502.404031,50 539,50 C577.659932,50 609,81.3400675 609,120 C609,126.10896 608.217885,132.112756 606.688883,137.907947 L606.134217,140.010232 L606.856894,140.137659 Z"></path>
            </g>
        </g>
    </g>
</svg>