<?xml version="1.0" encoding="UTF-8"?>
<svg width="790px" height="1060px" viewBox="0 0 790 1060" version="1.1" xmlns="http://www.w3.org/2000/svg" xmlns:xlink="http://www.w3.org/1999/xlink">
    <!-- Generator: Sketch 43.2 (39069) - http://www.bohemiancoding.com/sketch -->
    <title>Artboard</title>
    <desc>Created with Sketch.</desc>
    <defs>
        <path d="M713,125 L713,939.999963 C713,979.764502 680.764502,1012 641,1012 C601.235498,1012 569,979.764502 569,940 L569,125 C569,85.235498 601.235498,53 641,53 C680.764502,53 713,85.235498 713,125 Z" id="path-1"></path>
        <path d="M221.777577,117.298687 L293.823673,525.892402 L366.222423,115.298687 C369.128678,78.1994197 400.154394,49 438,49 C477.764502,49 510,81.235498 510,121 C510,127.366158 509.173775,133.53934 507.622708,139.418167 L508.173806,139.51534 L365.450443,948.939751 C365.145765,951.399956 364.716975,953.821686 364.170533,956.198482 L363.896994,957.7498 L363.799937,957.732686 C355.900522,988.92232 327.645302,1012 294,1012 C261.04513,1012 233.261392,989.859751 224.711958,959.642425 L224.103006,959.7498 L79.8261942,141.51534 L80.3772925,141.418167 C78.8262245,135.53934 78,129.366158 78,123 C78,83.235498 110.235498,51 150,51 C187.845606,51 218.871322,80.1994197 221.777577,117.298687 L221.777577,117.298687 Z" id="path-2"></path>
    </defs>
    <g id="Page-1" stroke="none" stroke-width="1" fill="none" fill-rule="evenodd">
        <g id="Artboard">
            <g id="Combined-Shape">
                <use fill="#000000" fill-rule="evenodd" xlink:href="#path-1"></use>
                <path stroke="#000000" stroke-width="4" d="M711,125 L711,939.999963 C711,978.659927 679.659938,1010 641,1010 C602.340068,1010 571,978.659932 571,940 L571,125 C571,86.3400675 602.340068,55 641,55 C679.659932,55 711,86.3400675 711,125 Z"></path>
            </g>
            <g id="Combined-Shape">
                <use fill="#000000" fill-rule="evenodd" xlink:href="#path-2"></use>
                <path stroke="#000000" stroke-width="4" d="M505.856894,141.137659 L363.480828,948.592455 L363.465606,948.693943 C363.170922,951.073443 362.755351,953.42782 362.221383,955.75036 L362.200918,955.851186 L362.172504,956.012328 L361.861153,957.241649 C354.060141,988.042757 326.22355,1010 294,1010 C262.478475,1010 235.091516,988.981854 226.636414,959.097936 L226.144412,957.358992 L225.725325,957.432888 L82.143106,143.137659 L82.8657829,143.010232 L82.3111167,140.907947 C80.782115,135.112756 80,129.10896 80,123 C80,84.3400675 111.340068,53 150,53 C186.595969,53 216.942827,81.1904144 219.783686,117.454883 L219.807961,117.645983 L291.854058,526.239698 L293.823673,537.409943 L295.793289,526.239698 L368.192039,115.645983 L368.216314,115.454883 C371.057173,79.1904144 401.404031,51 438,51 C476.659932,51 508,82.3400675 508,121 C508,127.10896 507.217885,133.112756 505.688883,138.907947 L505.134217,141.010232 L505.856894,141.137659 Z"></path>
            </g>
        </g>
    </g>
</svg>