<?xml version="1.0" encoding="UTF-8"?>
<svg width="790px" height="1060px" viewBox="0 0 790 1060" version="1.1" xmlns="http://www.w3.org/2000/svg" xmlns:xlink="http://www.w3.org/1999/xlink">
    <!-- Generator: Sketch 43.2 (39069) - http://www.bohemiancoding.com/sketch -->
    <title>Artboard</title>
    <desc>Created with Sketch.</desc>
    <defs>
        <path d="M181.7177,155.465694 L318.016082,529.94242 L179.909063,909.388337 C176.107342,918.158053 174,927.832928 174,938 C174,977.764502 206.235498,1010 246,1010 C277.684552,1010 304.588953,989.533743 314.214437,961.099996 L314.315737,961.136867 L394.636882,740.456337 L474.958026,961.136867 L475.059326,961.099996 C484.68481,989.533743 511.589211,1010 543.273763,1010 C583.038265,1010 615.273763,977.764502 615.273763,938 C615.273763,927.832928 613.166421,918.158053 609.3647,909.388337 L471.257681,529.94242 L607.556063,155.465694 C612.49248,145.710832 615.273763,134.680218 615.273763,123 C615.273763,83.235498 583.038265,51 543.273763,51 C513.672191,51 488.242923,68.8637589 477.17818,94.3990561 L476.61545,94.194239 L394.636882,319.428504 L312.658313,94.194239 L312.095583,94.3990561 C301.03084,68.8637589 275.601572,51 246,51 C206.235498,51 174,83.235498 174,123 C174,134.680218 176.781283,145.710832 181.7177,155.465694 Z" id="path-1"></path>
    </defs>
    <g id="Page-1" stroke="none" stroke-width="1" fill="none" fill-rule="evenodd">
        <g id="Artboard">
            <g id="Combined-Shape">
                <use fill="#000000" fill-rule="evenodd" xlink:href="#path-1"></use>
                <path stroke="#000000" stroke-width="4" d="M311.462969,96.7576645 L392.757496,320.112544 L394.636882,325.276112 L396.516267,320.112544 L477.810795,96.7576645 L478.264327,96.9227368 L479.013306,95.1942375 C490.020954,69.7907033 515.105773,53 543.273763,53 C581.933696,53 613.273763,84.3400675 613.273763,123 C613.273763,134.118668 610.680622,144.861812 605.771546,154.562645 L605.717566,154.669314 L605.676678,154.781654 L469.378296,529.25838 L469.129326,529.94242 L469.378296,530.626461 L607.485315,910.072377 L607.529704,910.183818 C611.302022,918.885707 613.273763,928.30279 613.273763,938 C613.273763,976.659932 581.933696,1008 543.273763,1008 C513.0331,1008 486.496418,988.647889 476.953723,960.458699 L476.297732,958.520898 L476.153371,958.573441 L396.516267,739.772297 L394.636882,734.608728 L392.757496,739.772297 L313.120392,958.573441 L312.976031,958.520898 L312.32004,960.458699 C302.777345,988.647889 276.240663,1008 246,1008 C207.340068,1008 176,976.659932 176,938 C176,928.30279 177.971741,918.885707 181.744059,910.183818 L181.788448,910.072377 L319.895467,530.626461 L320.144437,529.94242 L319.895467,529.25838 L183.597085,154.781654 L183.556197,154.669314 L183.502217,154.562645 C178.593141,144.861812 176,134.118668 176,123 C176,84.3400675 207.340068,53 246,53 C274.16799,53 299.252809,69.7907033 310.260457,95.1942375 L311.009436,96.9227368 L311.462969,96.7576645 Z"></path>
            </g>
        </g>
    </g>
</svg>