<?xml version="1.0" encoding="UTF-8"?>
<svg width="790px" height="1060px" viewBox="0 0 790 1060" version="1.1" xmlns="http://www.w3.org/2000/svg" xmlns:xlink="http://www.w3.org/1999/xlink">
    <!-- Generator: Sketch 43.2 (39069) - http://www.bohemiancoding.com/sketch -->
    <title>Artboard</title>
    <desc>Created with Sketch.</desc>
    <defs></defs>
    <g id="Page-1" stroke="none" stroke-width="1" fill="none" fill-rule="evenodd">
        <g id="Artboard" stroke="#000000" stroke-width="4" fill="#000000">
            <path d="M477.650725,529.434078 L649.565397,160.761874 C655.251729,150.161652 658.478971,138.031294 658.478971,125.143102 C658.478971,83.6427126 625.016964,50 583.739486,50 C554.559646,50 529.285468,66.8124305 516.977155,91.3281597 L516.273415,91 L394.739486,351.630352 L273.205557,91 L272.501816,91.3281597 C260.193504,66.8124305 234.919326,50 205.739486,50 C164.462008,50 131,83.6427126 131,125.143102 C131,138.031294 134.227243,150.161652 139.913574,160.761874 L311.828246,529.434078 L139.482734,899.030222 L140.039815,899.289994 C134.275031,909.945628 131,922.159837 131,935.143102 C131,976.643491 164.462008,1010.2862 205.739486,1010.2862 C237.44984,1010.2862 264.547752,990.431341 275.405554,962.412074 L275.688291,962.543917 L394.739486,707.237805 L513.790681,962.543917 L514.073417,962.412074 C524.93122,990.431341 552.029131,1010.2862 583.739486,1010.2862 C625.016964,1010.2862 658.478971,976.643491 658.478971,935.143102 C658.478971,922.159837 655.20394,909.945628 649.439156,899.289994 L649.996237,899.030222 L477.650725,529.434078 Z" id="Combined-Shape"></path>
        </g>
    </g>
</svg>